<?xml version="1.0" encoding="UTF-8" standalone="no"?>
<!-- Created with Inkscape (http://www.inkscape.org/) -->

<svg
   xmlns:dc="http://purl.org/dc/elements/1.1/"
   xmlns:cc="http://creativecommons.org/ns#"
   xmlns:rdf="http://www.w3.org/1999/02/22-rdf-syntax-ns#"
   xmlns:svg="http://www.w3.org/2000/svg"
   xmlns="http://www.w3.org/2000/svg"
   xmlns:sodipodi="http://sodipodi.sourceforge.net/DTD/sodipodi-0.dtd"
   xmlns:inkscape="http://www.inkscape.org/namespaces/inkscape"
   version="1.1"
   id="svg2"
   xml:space="preserve"
   width="840"
   height="840"
   viewBox="0 0 840 840"
   sodipodi:docname="fake_audience_icon.svg"
   inkscape:version="0.92.5 (2060ec1f9f, 2020-04-08)"><metadata
     id="metadata8"><rdf:RDF><cc:Work
         rdf:about=""><dc:format>image/svg+xml</dc:format><dc:type
           rdf:resource="http://purl.org/dc/dcmitype/StillImage" /><dc:title></dc:title></cc:Work></rdf:RDF></metadata><defs
     id="defs6" /><sodipodi:namedview
     pagecolor="#ffffff"
     bordercolor="#666666"
     borderopacity="1"
     objecttolerance="10"
     gridtolerance="10"
     guidetolerance="10"
     inkscape:pageopacity="0"
     inkscape:pageshadow="2"
     inkscape:window-width="3440"
     inkscape:window-height="1392"
     id="namedview4"
     showgrid="false"
     inkscape:zoom="0.57275649"
     inkscape:cx="281.48148"
     inkscape:cy="-133.55947"
     inkscape:window-x="1920"
     inkscape:window-y="0"
     inkscape:window-maximized="1"
     inkscape:current-layer="g14" /><g
     id="g10"
     inkscape:groupmode="layer"
     inkscape:label="brand-miguelrivas"
     transform="matrix(1.3333333,0,0,-1.3333333,0,840)"><g
       clip-path="none"
       id="g14"><g
         id="g1014"
         transform="translate(4.3900079)"><g
           id="g32"
           transform="translate(495.5104,360.49415)"><path
             d="m 0,0 c -3.707,-28.458 -28.023,-50.424 -57.488,-50.424 -6.682,0 -13.109,1.138 -19.087,3.224 5.714,-8.991 9.022,-19.636 9.022,-31.075 0,-6.862 -1.187,-13.439 -3.376,-19.567 4.983,-1.217 10.172,-1.881 15.546,-1.881 36.037,0 65.258,29.215 65.258,65.257 C 9.875,-21.816 6.247,-9.996 0,0"
             style="fill:#b06b03;fill-opacity:1;fill-rule:nonzero;stroke:none"
             id="path34"
             inkscape:connector-curvature="0" /></g><g
           id="g36"
           transform="translate(125.7096,360.49415)"><path
             d="m 0,0 c 3.707,-28.458 28.023,-50.424 57.488,-50.424 6.677,0 13.104,1.138 19.092,3.224 -5.726,-8.991 -9.032,-19.636 -9.032,-31.075 0,-6.862 1.192,-13.439 3.383,-19.567 -4.985,-1.217 -10.192,-1.881 -15.543,-1.881 -36.05,0 -65.263,29.215 -65.263,65.257 0,12.65 3.627,24.47 9.875,34.466"
             style="fill:#b06b03;fill-opacity:1;fill-rule:nonzero;stroke:none"
             id="path38"
             inkscape:connector-curvature="0" /></g><g
           id="g40"
           transform="translate(439.5319,-168.59375)"><path
             d="m 0,0 v 152.706 h -0.277 l -21.527,37.274 -21.425,-37.11 -21.423,37.11 -21.416,-37.12 -21.427,37.12 -21.427,-37.12 -21.432,37.12 -21.417,-37.12 -21.42,37.12 -21.422,-37.12 -21.422,37.12 -21.536,-37.274 h -0.275 V 0 Z"
             style="fill:#bb2b73;fill-opacity:1;fill-rule:nonzero;stroke:none"
             id="path42"
             inkscape:connector-curvature="0" /></g><g
           id="g44"
           transform="translate(181.6862,91.48925)"><path
             d="m 0,0 v -141.154 h 0.274 l 21.522,-37.275 21.436,37.106 21.416,-37.106 21.427,37.111 21.417,-37.111 21.432,37.111 21.427,-37.111 21.426,37.111 21.411,-37.111 21.429,37.111 21.42,-37.111 21.531,37.275 h 0.278 V 0 Z"
             style="fill:#562870;fill-opacity:1;fill-rule:nonzero;stroke:none"
             id="path46"
             inkscape:connector-curvature="0" /></g><g
           id="g48"
           transform="translate(181.6862,278.42095)"><path
             d="m 0,0 v -190.3 h 0.274 l 21.522,-37.264 21.436,37.11 21.416,-37.11 21.427,37.11 21.417,-37.11 21.432,37.11 21.427,-37.11 21.426,37.11 21.411,-37.11 21.429,37.11 21.42,-37.11 21.531,37.264 h 0.278 V 0 Z"
             style="fill:#00a89c;fill-opacity:1;fill-rule:nonzero;stroke:none"
             id="path50"
             inkscape:connector-curvature="0" /></g><path
           d="m 314.312,510.02565 h -7.42 v -73.775 h 7.42 z"
           style="fill:#603b19;fill-opacity:1;fill-rule:nonzero;stroke:none"
           id="path52"
           inkscape:connector-curvature="0" /><g
           id="g54"
           transform="translate(439.5319,278.42095)"><path
             d="m 0,0 c 0,-71.206 -57.721,-128.924 -128.922,-128.924 -71.201,0 -128.924,57.718 -128.924,128.924 0,71.189 57.723,128.913 128.924,128.913 C -57.721,128.913 0,71.189 0,0"
             style="fill:#00a89c;fill-opacity:1;fill-rule:nonzero;stroke:none"
             id="path56"
             inkscape:connector-curvature="0" /></g><g
           id="g58"
           transform="translate(291.7907,299.38285)"><path
             d="m 0,0 c 0,-19.879 -16.112,-35.996 -35.965,-35.996 -19.872,0 -35.989,16.117 -35.989,35.996 0,19.859 16.117,35.967 35.989,35.967 C -16.112,35.967 0,19.859 0,0"
             style="fill:#d23785;fill-opacity:1;fill-rule:nonzero;stroke:none"
             id="path60"
             inkscape:connector-curvature="0" /></g><g
           id="g62"
           transform="translate(264.2213,300.27535)"><path
             d="m 0,0 c 0,-5.52 -4.459,-9.984 -9.987,-9.984 -5.512,0 -9.99,4.464 -9.99,9.984 0,5.529 4.478,9.984 9.99,9.984 C -4.459,9.984 0,5.529 0,0"
             style="fill:#231f20;fill-opacity:1;fill-rule:nonzero;stroke:none"
             id="path64"
             inkscape:connector-curvature="0" /></g><g
           id="g66"
           transform="translate(376.9704,300.27535)"><path
             d="m 0,0 c 0,-5.52 -4.461,-9.984 -9.982,-9.984 -5.517,0 -9.982,4.464 -9.982,9.984 0,5.529 4.465,9.984 9.982,9.984 C -4.461,9.984 0,5.529 0,0"
             style="fill:#231f20;fill-opacity:1;fill-rule:nonzero;stroke:none"
             id="path68"
             inkscape:connector-curvature="0" /></g><g
           id="g70"
           transform="translate(440.2946,234.11525)"><path
             d="m 0,0 c 0,-71.609 -58.055,-129.662 -129.685,-129.662 -71.629,0 -129.692,58.053 -129.692,129.662 z"
             style="fill:#562870;fill-opacity:1;fill-rule:nonzero;stroke:none"
             id="path72"
             inkscape:connector-curvature="0" /></g><g
           id="g74"
           transform="translate(232.5006,234.57035)"><path
             d="M 0,0 13.585,23.507 27.16,0 Z"
             style="fill:#ffffff;fill-opacity:1;fill-rule:nonzero;stroke:none"
             id="path76"
             inkscape:connector-curvature="0" /></g><g
           id="g78"
           transform="translate(361.5592,234.57035)"><path
             d="M 0,0 13.563,23.507 27.157,0 Z"
             style="fill:#ffffff;fill-opacity:1;fill-rule:nonzero;stroke:none"
             id="path80"
             inkscape:connector-curvature="0" /></g><g
           id="g82"
           transform="translate(271.5787,399.61915)"><path
             d="M 0,0 C 0,21.547 17.467,39.021 39.031,39.021 60.59,39.021 78.063,21.547 78.063,0 Z"
             style="fill:#a67e53;fill-opacity:1;fill-rule:nonzero;stroke:none"
             id="path84"
             inkscape:connector-curvature="0" /></g><g
           id="g86"
           transform="translate(310.61,467.73145)"><path
             d="m 0,0 c -9.246,0 -16.721,7.479 -16.721,16.722 0,9.23 7.475,16.705 16.721,16.705 9.233,0 16.729,-7.475 16.729,-16.705 C 16.729,7.479 9.233,0 0,0"
             style="fill:#f05c28;fill-opacity:1;fill-rule:nonzero;stroke:none"
             id="path88"
             inkscape:connector-curvature="0" /></g><g
           id="g90"
           transform="translate(310.61,494.66705)"><path
             d="m 0,0 c -9.246,0 -16.721,7.484 -16.721,16.711 0,9.231 7.475,16.726 16.721,16.726 9.233,0 16.729,-7.495 16.729,-16.726 C 16.729,7.484 9.233,0 0,0"
             style="fill:#f05c28;fill-opacity:1;fill-rule:nonzero;stroke:none"
             id="path92"
             inkscape:connector-curvature="0" /></g><g
           id="g94"
           transform="translate(340.7965,497.91015)"><path
             d="m 0,0 c 0,-9.217 -7.482,-16.711 -16.714,-16.711 -9.241,0 -16.724,7.494 -16.724,16.711 0,9.227 7.483,16.741 16.724,16.741 C -7.482,16.741 0,9.227 0,0"
             style="fill:#f05c28;fill-opacity:1;fill-rule:nonzero;stroke:none"
             id="path96"
             inkscape:connector-curvature="0" /></g><g
           id="g98"
           transform="translate(313.8629,497.91015)"><path
             d="m 0,0 c 0,-9.217 -7.484,-16.711 -16.73,-16.711 -9.217,0 -16.717,7.494 -16.717,16.711 0,9.227 7.5,16.741 16.717,16.741 C -7.484,16.741 0,9.227 0,0"
             style="fill:#f05c28;fill-opacity:1;fill-rule:nonzero;stroke:none"
             id="path100"
             inkscape:connector-curvature="0" /></g><g
           id="g102"
           transform="translate(323.8834,497.91015)"><path
             d="m 0,0 c 0,-7.314 -5.959,-13.243 -13.273,-13.243 -7.323,0 -13.264,5.929 -13.264,13.243 0,7.335 5.941,13.268 13.264,13.268 C -5.959,13.268 0,7.335 0,0"
             style="fill:#fbb03d;fill-opacity:1;fill-rule:nonzero;stroke:none"
             id="path104"
             inkscape:connector-curvature="0" /></g></g></g></g></svg>