<svg xmlns="http://www.w3.org/2000/svg" xmlns:xlink="http://www.w3.org/1999/xlink" version="1.1" x="0px" y="0px" viewBox="0 0 23.963 38.725" style="enable-background:new 0 0 23.963 30.98;" xml:space="preserve"><g><path d="M0.367,5.98h23.245c0.173,0,0.32-0.095,0.347-0.276c0.025-0.182-0.079-0.322-0.244-0.376l-4.013-1.332   c-2.013-0.65-4.105-1.016-6.21-1.016h-3.005c-2.104,0-4.198,0.361-6.211,1.012L0.265,5.313C0.099,5.368-0.005,5.52,0.021,5.701   C0.047,5.883,0.193,5.98,0.367,5.98z"/><path d="M14,1.989C14,0.891,13.099,0,12,0s-2,0.891-2,1.989V1.98h4V1.989z"/><path d="M23.596,7.98H0.351c-0.173,0-0.32,0.169-0.347,0.352c-0.025,0.184,0.079,0.376,0.245,0.429l4.012,1.278   c1.527,0.498,3.097,0.791,4.687,0.904C9.008,11.779,9,12.516,10,13.025v8.993l-7.529,7.255c-0.391,0.391-0.388,1.023,0.003,1.414   s1.02,0.391,1.41,0L10,24.837V27c0,1.104,0.896,2,2,2s2-0.896,2-2v-2.18l6.143,5.867c0.391,0.391,1.026,0.391,1.417,0   s0.387-1.023-0.004-1.414L14,22.002v-8.971c1-0.505,0.979-1.308,1.035-2.094c1.602-0.109,3.11-0.39,4.648-0.89l4.013-1.27   c0.167-0.054,0.271-0.263,0.245-0.446C23.916,8.149,23.77,7.98,23.596,7.98z"/></g><text x="0" y="45.980000000000004" fill="#000000" font-size="5px" font-weight="bold" font-family="'Helvetica Neue', Helvetica, Arial-Unicode, Arial, Sans-serif">Created by Yo! Baba</text><text x="0" y="50.980000000000004" fill="#000000" font-size="5px" font-weight="bold" font-family="'Helvetica Neue', Helvetica, Arial-Unicode, Arial, Sans-serif">from the Noun Project</text></svg>