<svg xmlns="http://www.w3.org/2000/svg" xmlns:xlink="http://www.w3.org/1999/xlink" version="1.1" x="0px" y="0px" viewBox="0 0 100 125" enable-background="new 0 0 100 100" xml:space="preserve"><g><path d="M47.1,51.1c3.4,0,6.1-2.8,6.1-6.1s-2.8-6.1-6.1-6.1c-3.4,0-6.1,2.8-6.1,6.1S43.7,51.1,47.1,51.1z M47.1,42.9   c1.2,0,2.1,1,2.1,2.1s-1,2.1-2.1,2.1c-1.2,0-2.1-1-2.1-2.1S45.9,42.9,47.1,42.9z"/><path d="M62.5,53.3c-3.4,0-6.1,2.8-6.1,6.1s2.8,6.1,6.1,6.1c3.4,0,6.1-2.8,6.1-6.1S65.9,53.3,62.5,53.3z M62.5,61.6   c-1.2,0-2.1-1-2.1-2.1s1-2.1,2.1-2.1c1.2,0,2.1,1,2.1,2.1S63.7,61.6,62.5,61.6z"/><path d="M46.4,70c-4.2,0-7.5,3.4-7.5,7.5s3.4,7.5,7.5,7.5c4.2,0,7.6-3.4,7.6-7.5S50.6,70,46.4,70z M46.4,81.1c-2,0-3.5-1.6-3.5-3.5   c0-2,1.6-3.5,3.5-3.5c2,0,3.6,1.6,3.6,3.5C50,79.5,48.4,81.1,46.4,81.1z"/><path d="M22.7,7.8l5.7,82.8c0.2,3.2,2.9,5.7,6.1,5.7h33.4c3.2,0,5.9-2.5,6.1-5.7l5.7-82.8H22.7z M75.4,11.8l-0.9,13.8   c-1.5-1.5-3.6-2.4-5.7-2.4c-2.2,0-4.2,0.8-5.8,2.4c-0.8,0.8-1.8,1.2-2.9,1.2s-2.1-0.4-2.9-1.2c-1.5-1.5-3.6-2.4-5.8-2.4   s-4.2,0.8-5.8,2.4c-0.8,0.8-1.8,1.2-2.9,1.2s-2.1-0.4-2.9-1.2l-0.1-0.1c-3.1-3.1-8.1-3.2-11.3-0.2l-0.3,0.4l-1-14H75.4z M70,90.3   c-0.1,1.1-1,2-2.1,2H34.5c-1.1,0-2-0.9-2.1-2l-4.1-59.5l2.7-2.6c1.6-1.6,4.2-1.5,5.8,0.1l0.1,0.1c1.5,1.5,3.6,2.4,5.8,2.4   s4.2-0.8,5.8-2.4c0.8-0.8,1.8-1.2,2.9-1.2s2.1,0.4,2.9,1.2c1.5,1.5,3.6,2.4,5.8,2.4s4.2-0.8,5.8-2.4c0.8-0.8,1.8-1.2,2.9-1.2   s2.1,0.4,2.9,1.2l2.5,2.5L70,90.3z"/></g><text x="0" y="115" fill="#000000" font-size="5px" font-weight="bold" font-family="'Helvetica Neue', Helvetica, Arial-Unicode, Arial, Sans-serif">Created by Mila Redko</text><text x="0" y="120" fill="#000000" font-size="5px" font-weight="bold" font-family="'Helvetica Neue', Helvetica, Arial-Unicode, Arial, Sans-serif">from the Noun Project</text></svg>