<?xml version="1.0" encoding="UTF-8" standalone="no"?>
<svg
   xmlns:dc="http://purl.org/dc/elements/1.1/"
   xmlns:cc="http://creativecommons.org/ns#"
   xmlns:rdf="http://www.w3.org/1999/02/22-rdf-syntax-ns#"
   xmlns:svg="http://www.w3.org/2000/svg"
   xmlns="http://www.w3.org/2000/svg"
   xmlns:sodipodi="http://sodipodi.sourceforge.net/DTD/sodipodi-0.dtd"
   xmlns:inkscape="http://www.inkscape.org/namespaces/inkscape"
   viewBox="0 0 512 640"
   x="0px"
   y="0px"
   version="1.1"
   id="svg30"
   sodipodi:docname="noun_Happy_1691518.svg"
   inkscape:version="0.92.5 (2060ec1f9f, 2020-04-08)">
  <metadata
     id="metadata34">
    <rdf:RDF>
      <cc:Work
         rdf:about="">
        <dc:format>image/svg+xml</dc:format>
        <dc:type
           rdf:resource="http://purl.org/dc/dcmitype/StillImage" />
      </cc:Work>
    </rdf:RDF>
  </metadata>
  <sodipodi:namedview
     pagecolor="#ffffff"
     bordercolor="#666666"
     borderopacity="1"
     objecttolerance="10"
     gridtolerance="10"
     guidetolerance="10"
     inkscape:pageopacity="0"
     inkscape:pageshadow="2"
     inkscape:window-width="1391"
     inkscape:window-height="946"
     id="namedview32"
     showgrid="false"
     inkscape:zoom="0.7375"
     inkscape:cx="311.46763"
     inkscape:cy="278.79494"
     inkscape:window-x="2634"
     inkscape:window-y="202"
     inkscape:window-maximized="0"
     inkscape:current-layer="svg30" />
  <defs
     id="defs4">
    <style
       id="style2">.cls-1,.cls-2{stroke:#000;stroke-linecap:round;stroke-linejoin:round;stroke-width:20px;}.cls-2{fill:none;}</style>
  </defs>
  <title
     id="title6">Happy-Emoji-Emotion-Face-Expression-Feeling_3</title>
  <path
     style="color:#000000;font-style:normal;font-variant:normal;font-weight:normal;font-stretch:normal;font-size:medium;line-height:normal;font-family:sans-serif;font-variant-ligatures:normal;font-variant-position:normal;font-variant-caps:normal;font-variant-numeric:normal;font-variant-alternates:normal;font-feature-settings:normal;text-indent:0;text-align:start;text-decoration:none;text-decoration-line:none;text-decoration-style:solid;text-decoration-color:#000000;letter-spacing:normal;word-spacing:normal;text-transform:none;writing-mode:lr-tb;direction:ltr;text-orientation:mixed;dominant-baseline:auto;baseline-shift:baseline;text-anchor:start;white-space:normal;shape-padding:0;clip-rule:nonzero;display:inline;overflow:visible;visibility:visible;opacity:1;isolation:auto;mix-blend-mode:normal;color-interpolation:sRGB;color-interpolation-filters:linearRGB;solid-color:#000000;solid-opacity:1;vector-effect:none;fill:#000000;fill-opacity:1;fill-rule:nonzero;stroke:none;stroke-width:20px;stroke-linecap:round;stroke-linejoin:round;stroke-miterlimit:4;stroke-dasharray:none;stroke-dashoffset:0;stroke-opacity:1;color-rendering:auto;image-rendering:auto;shape-rendering:auto;text-rendering:auto;enable-background:accumulate"
     d="m 151.91992,320.28906 a 10.001,10.001 0 0 0 -10,10 c -2e-5,62.87599 51.21192,114.04837 114.08789,114 C 318.84622,444.28478 370,393.12845 370,330.28906 a 10.001,10.001 0 0 0 -10,-10 z m 10.53906,20 h 187 c -4.97287,47.30376 -44.8063,84 -93.45898,84 a 10.001,10.001 0 0 0 -0.008,0 c -48.6815,0.0374 -88.55812,-36.66874 -93.53321,-84 z"
     id="path8"
     inkscape:connector-curvature="0" />
  <path
     style="color:#000000;font-style:normal;font-variant:normal;font-weight:normal;font-stretch:normal;font-size:medium;line-height:normal;font-family:sans-serif;font-variant-ligatures:normal;font-variant-position:normal;font-variant-caps:normal;font-variant-numeric:normal;font-variant-alternates:normal;font-feature-settings:normal;text-indent:0;text-align:start;text-decoration:none;text-decoration-line:none;text-decoration-style:solid;text-decoration-color:#000000;letter-spacing:normal;word-spacing:normal;text-transform:none;writing-mode:lr-tb;direction:ltr;text-orientation:mixed;dominant-baseline:auto;baseline-shift:baseline;text-anchor:start;white-space:normal;shape-padding:0;clip-rule:nonzero;display:inline;overflow:visible;visibility:visible;opacity:1;isolation:auto;mix-blend-mode:normal;color-interpolation:sRGB;color-interpolation-filters:linearRGB;solid-color:#000000;solid-opacity:1;vector-effect:none;fill:#000000;fill-opacity:1;fill-rule:nonzero;stroke:none;stroke-width:20px;stroke-linecap:round;stroke-linejoin:round;stroke-miterlimit:4;stroke-dasharray:none;stroke-dashoffset:0;stroke-opacity:1;color-rendering:auto;image-rendering:auto;shape-rendering:auto;text-rendering:auto;enable-background:accumulate"
     d="m 320.00977,250.63086 c -20.24981,0 -36.87891,16.62908 -36.87891,36.87891 a 10.001,10.001 0 1 0 20,0 c 0,-9.44103 7.43788,-16.87891 16.87891,-16.87891 9.44102,0 16.88085,7.43788 16.88085,16.87891 a 10.001,10.001 0 1 0 20,0 c 0,-20.24983 -16.63105,-36.87891 -36.88085,-36.87891 z"
     id="path10"
     inkscape:connector-curvature="0" />
  <path
     style="color:#000000;font-style:normal;font-variant:normal;font-weight:normal;font-stretch:normal;font-size:medium;line-height:normal;font-family:sans-serif;font-variant-ligatures:normal;font-variant-position:normal;font-variant-caps:normal;font-variant-numeric:normal;font-variant-alternates:normal;font-feature-settings:normal;text-indent:0;text-align:start;text-decoration:none;text-decoration-line:none;text-decoration-style:solid;text-decoration-color:#000000;letter-spacing:normal;word-spacing:normal;text-transform:none;writing-mode:lr-tb;direction:ltr;text-orientation:mixed;dominant-baseline:auto;baseline-shift:baseline;text-anchor:start;white-space:normal;shape-padding:0;clip-rule:nonzero;display:inline;overflow:visible;visibility:visible;opacity:1;isolation:auto;mix-blend-mode:normal;color-interpolation:sRGB;color-interpolation-filters:linearRGB;solid-color:#000000;solid-opacity:1;vector-effect:none;fill:#000000;fill-opacity:1;fill-rule:nonzero;stroke:none;stroke-width:20px;stroke-linecap:round;stroke-linejoin:round;stroke-miterlimit:4;stroke-dasharray:none;stroke-dashoffset:0;stroke-opacity:1;color-rendering:auto;image-rendering:auto;shape-rendering:auto;text-rendering:auto;enable-background:accumulate"
     d="m 193.26953,250.63086 c -20.2498,0 -36.87891,16.62908 -36.87891,36.87891 a 10.001,10.001 0 1 0 20,0 c 0,-9.44103 7.43789,-16.87891 16.87891,-16.87891 9.44102,0 16.88086,7.43788 16.88086,16.87891 a 10.001,10.001 0 1 0 20,0 c 0,-20.24983 -16.63105,-36.87891 -36.88086,-36.87891 z"
     id="path12"
     inkscape:connector-curvature="0" />
  <path
     style="color:#000000;font-style:normal;font-variant:normal;font-weight:normal;font-stretch:normal;font-size:medium;line-height:normal;font-family:sans-serif;font-variant-ligatures:normal;font-variant-position:normal;font-variant-caps:normal;font-variant-numeric:normal;font-variant-alternates:normal;font-feature-settings:normal;text-indent:0;text-align:start;text-decoration:none;text-decoration-line:none;text-decoration-style:solid;text-decoration-color:#000000;letter-spacing:normal;word-spacing:normal;text-transform:none;writing-mode:lr-tb;direction:ltr;text-orientation:mixed;dominant-baseline:auto;baseline-shift:baseline;text-anchor:start;white-space:normal;shape-padding:0;clip-rule:nonzero;display:inline;overflow:visible;visibility:visible;opacity:1;isolation:auto;mix-blend-mode:normal;color-interpolation:sRGB;color-interpolation-filters:linearRGB;solid-color:#000000;solid-opacity:1;vector-effect:none;fill:#000000;fill-opacity:1;fill-rule:nonzero;stroke:none;stroke-width:20px;stroke-linecap:round;stroke-linejoin:round;stroke-miterlimit:4;stroke-dasharray:none;stroke-dashoffset:0;stroke-opacity:1;color-rendering:auto;image-rendering:auto;shape-rendering:auto;text-rendering:auto;enable-background:accumulate"
     d="m 94.650391,227.39062 c -34.6277,0 -62.361329,29.64205 -62.361329,65.29883 C 32.289063,328.34624 60.020386,358 94.650391,358 c 0.65,0 1.558494,0.009 2.716797,-0.0801 a 10.001,10.001 0 0 0 9.232422,-9.9707 V 237.43945 a 10.001,10.001 0 0 0 -10.000001,-10 c -0.137179,0 -0.786398,-0.0488 -1.949218,-0.0488 z m -8.050782,20.85547 v 88.89649 C 67.178567,333.1625 52.289063,315.0972 52.289062,292.68945 c 0,-22.40775 14.888346,-40.46512 34.310547,-44.44336 z"
     id="path14"
     inkscape:connector-curvature="0" />
  <path
     style="color:#000000;font-style:normal;font-variant:normal;font-weight:normal;font-stretch:normal;font-size:medium;line-height:normal;font-family:sans-serif;font-variant-ligatures:normal;font-variant-position:normal;font-variant-caps:normal;font-variant-numeric:normal;font-variant-alternates:normal;font-feature-settings:normal;text-indent:0;text-align:start;text-decoration:none;text-decoration-line:none;text-decoration-style:solid;text-decoration-color:#000000;letter-spacing:normal;word-spacing:normal;text-transform:none;writing-mode:lr-tb;direction:ltr;text-orientation:mixed;dominant-baseline:auto;baseline-shift:baseline;text-anchor:start;white-space:normal;shape-padding:0;clip-rule:nonzero;display:inline;overflow:visible;visibility:visible;opacity:1;isolation:auto;mix-blend-mode:normal;color-interpolation:sRGB;color-interpolation-filters:linearRGB;solid-color:#000000;solid-opacity:1;vector-effect:none;fill:#000000;fill-opacity:1;fill-rule:nonzero;stroke:none;stroke-width:20px;stroke-linecap:round;stroke-linejoin:round;stroke-miterlimit:4;stroke-dasharray:none;stroke-dashoffset:0;stroke-opacity:1;color-rendering:auto;image-rendering:auto;shape-rendering:auto;text-rendering:auto;enable-background:accumulate"
     d="m 74.439453,279.3418 a 10.001,10.001 0 0 0 -1.785156,19.84961 c 3.492082,0.67065 7.358471,4.07498 10.242187,8.26562 2.883716,4.19065 4.306641,8.03125 4.306641,8.03125 a 10.001,10.001 0 1 0 18.794925,-6.83594 c 0,0 -2.18872,-6.08635 -6.625003,-12.5332 -4.436284,-6.44685 -11.599348,-14.39096 -22.947266,-16.57031 a 10.001,10.001 0 0 0 -1.986328,-0.20703 z"
     id="path16"
     inkscape:connector-curvature="0" />
  <path
     style="color:#000000;font-style:normal;font-variant:normal;font-weight:normal;font-stretch:normal;font-size:medium;line-height:normal;font-family:sans-serif;font-variant-ligatures:normal;font-variant-position:normal;font-variant-caps:normal;font-variant-numeric:normal;font-variant-alternates:normal;font-feature-settings:normal;text-indent:0;text-align:start;text-decoration:none;text-decoration-line:none;text-decoration-style:solid;text-decoration-color:#000000;letter-spacing:normal;word-spacing:normal;text-transform:none;writing-mode:lr-tb;direction:ltr;text-orientation:mixed;dominant-baseline:auto;baseline-shift:baseline;text-anchor:start;white-space:normal;shape-padding:0;clip-rule:nonzero;display:inline;overflow:visible;visibility:visible;opacity:1;isolation:auto;mix-blend-mode:normal;color-interpolation:sRGB;color-interpolation-filters:linearRGB;solid-color:#000000;solid-opacity:1;vector-effect:none;fill:#000000;fill-opacity:1;fill-rule:nonzero;stroke:none;stroke-width:20px;stroke-linecap:round;stroke-linejoin:round;stroke-miterlimit:4;stroke-dasharray:none;stroke-dashoffset:0;stroke-opacity:1;color-rendering:auto;image-rendering:auto;shape-rendering:auto;text-rendering:auto;enable-background:accumulate"
     d="m 423.07031,227.39062 c -1.16282,0 -1.82028,0.0488 -1.93945,0.0488 a 10.001,10.001 0 0 0 -10,10 v 110.50977 a 10.001,10.001 0 0 0 9.2207,9.9707 c 1.16417,0.091 2.06875,0.0801 2.71875,0.0801 34.63803,0 62.35938,-29.65594 62.35938,-65.31055 0,-35.65678 -27.73168,-65.29882 -62.35938,-65.29883 z m 8.06055,20.85743 c 19.4175,3.98223 34.29883,22.03735 34.29883,44.4414 0,22.40666 -14.87563,40.46821 -34.29883,44.45117 z"
     id="path18"
     inkscape:connector-curvature="0" />
  <path
     style="color:#000000;font-style:normal;font-variant:normal;font-weight:normal;font-stretch:normal;font-size:medium;line-height:normal;font-family:sans-serif;font-variant-ligatures:normal;font-variant-position:normal;font-variant-caps:normal;font-variant-numeric:normal;font-variant-alternates:normal;font-feature-settings:normal;text-indent:0;text-align:start;text-decoration:none;text-decoration-line:none;text-decoration-style:solid;text-decoration-color:#000000;letter-spacing:normal;word-spacing:normal;text-transform:none;writing-mode:lr-tb;direction:ltr;text-orientation:mixed;dominant-baseline:auto;baseline-shift:baseline;text-anchor:start;white-space:normal;shape-padding:0;clip-rule:nonzero;display:inline;overflow:visible;visibility:visible;opacity:1;isolation:auto;mix-blend-mode:normal;color-interpolation:sRGB;color-interpolation-filters:linearRGB;solid-color:#000000;solid-opacity:1;vector-effect:none;fill:#000000;fill-opacity:1;fill-rule:nonzero;stroke:none;stroke-width:20px;stroke-linecap:round;stroke-linejoin:round;stroke-miterlimit:4;stroke-dasharray:none;stroke-dashoffset:0;stroke-opacity:1;color-rendering:auto;image-rendering:auto;shape-rendering:auto;text-rendering:auto;enable-background:accumulate"
     d="m 442.97852,279.34766 a 10.001,10.001 0 0 0 -1.6836,0.20117 c -11.34832,2.17943 -18.51147,10.1265 -22.94531,16.57422 -4.43385,6.44771 -6.61914,12.5332 -6.61914,12.5332 a 10.001,10.001 0 1 0 18.79883,6.82813 c 0,0 1.41962,-3.83952 4.30078,-8.0293 2.88115,-4.18979 6.74465,-7.5931 10.23633,-8.26367 a 10.001,10.001 0 0 0 -2.08789,-19.84375 z"
     id="path20"
     inkscape:connector-curvature="0" />
  <path
     style="color:#000000;font-style:normal;font-variant:normal;font-weight:normal;font-stretch:normal;font-size:medium;line-height:normal;font-family:sans-serif;font-variant-ligatures:normal;font-variant-position:normal;font-variant-caps:normal;font-variant-numeric:normal;font-variant-alternates:normal;font-feature-settings:normal;text-indent:0;text-align:start;text-decoration:none;text-decoration-line:none;text-decoration-style:solid;text-decoration-color:#000000;letter-spacing:normal;word-spacing:normal;text-transform:none;writing-mode:lr-tb;direction:ltr;text-orientation:mixed;dominant-baseline:auto;baseline-shift:baseline;text-anchor:start;white-space:normal;shape-padding:0;clip-rule:nonzero;display:inline;overflow:visible;visibility:visible;opacity:1;isolation:auto;mix-blend-mode:normal;color-interpolation:sRGB;color-interpolation-filters:linearRGB;solid-color:#000000;solid-opacity:1;vector-effect:none;fill:#000000;fill-opacity:1;fill-rule:nonzero;stroke:none;stroke-width:20px;stroke-linecap:round;stroke-linejoin:round;stroke-miterlimit:4;stroke-dasharray:none;stroke-dashoffset:0;stroke-opacity:1;color-rendering:auto;image-rendering:auto;shape-rendering:auto;text-rendering:auto;enable-background:accumulate"
     d="m 332.97461,153.40234 a 10.001,10.001 0 0 0 -9.83203,8.875 c 0,0 -1.00627,10.63102 -12.29297,19.95899 -7.15775,5.74937 -16.07632,8.84725 -25.25781,8.76367 A 10.001,10.001 0 0 0 285.5,191 H 178.06055 a 10.001,10.001 0 0 0 -0.0195,0 c -25.55738,0.0475 -50.61716,-7.05466 -72.34961,-20.50391 a 10.001,10.001 0 0 0 -15.027348,6.34961 c -2.705256,12.25822 -4.067757,24.773 -4.064453,37.32618 V 338.73047 C 86.594822,433.75181 163.83778,511 258.85938,511 353.88302,511 431.13086,433.75412 431.13086,338.73047 V 237.2207 a 10.001,10.001 0 0 0 -9.39648,-9.98242 C 397.87256,225.7957 375.81914,214.1895 361.07031,195.4043 l -19.125,-36.63282 a 10.001,10.001 0 0 0 -8.9707,-5.36914 z m 0.87695,33.08399 9.99414,19.14258 a 10.001,10.001 0 0 0 0.94922,1.48242 c 16.3317,21.155 40.15197,35.00631 66.33594,39.01172 v 92.60742 C 411.13086,422.94531 343.07422,491 258.85938,491 174.64637,491 106.59442,422.94348 106.59961,338.73047 V 214.16992 a 10.001,10.001 0 0 0 0,-0.002 c -0.002,-6.57315 0.55545,-13.11729 1.39648,-19.62695 21.72232,10.78619 45.6797,16.50158 70.06446,16.45898 H 285.4082 c 13.81853,0.12579 27.25978,-4.54427 38.02344,-13.21094 a 10.001,10.001 0 0 0 0.0859,-0.0703 c 4.31977,-3.55835 7.69318,-7.42954 10.33398,-11.23242 z"
     id="path22"
     inkscape:connector-curvature="0" />
  <path
     style="color:#000000;font-style:normal;font-variant:normal;font-weight:normal;font-stretch:normal;font-size:medium;line-height:normal;font-family:sans-serif;font-variant-ligatures:normal;font-variant-position:normal;font-variant-caps:normal;font-variant-numeric:normal;font-variant-alternates:normal;font-feature-settings:normal;text-indent:0;text-align:start;text-decoration:none;text-decoration-line:none;text-decoration-style:solid;text-decoration-color:#000000;letter-spacing:normal;word-spacing:normal;text-transform:none;writing-mode:lr-tb;direction:ltr;text-orientation:mixed;dominant-baseline:auto;baseline-shift:baseline;text-anchor:start;white-space:normal;shape-padding:0;clip-rule:nonzero;display:inline;overflow:visible;visibility:visible;opacity:1;isolation:auto;mix-blend-mode:normal;color-interpolation:sRGB;color-interpolation-filters:linearRGB;solid-color:#000000;solid-opacity:1;vector-effect:none;fill:#000000;fill-opacity:1;fill-rule:nonzero;stroke:none;stroke-width:20px;stroke-linecap:round;stroke-linejoin:round;stroke-miterlimit:4;stroke-dasharray:none;stroke-dashoffset:0;stroke-opacity:1;color-rendering:auto;image-rendering:auto;shape-rendering:auto;text-rendering:auto;enable-background:accumulate"
     d="m 30.289062,0.38085938 c -5.522619,5.5218e-4 -9.999448,4.47738102 -10,9.99999962 v 42.859375 c -0.05211,34.000407 11.023285,67.012016 31.330079,94.201176 v 102.34765 c -3.75e-4,8.58117 10.09663,13.17797 16.568359,7.54297 7.3382,-6.38979 16.726769,-9.91759 26.457031,-9.94141 h 1.275391 c 4.193218,-4.2e-4 7.940928,-2.61664 9.386718,-6.55273 l 0.65039,-1.77148 c 0.40555,-1.10409 0.61316,-2.27106 0.61328,-3.44727 v -41.81055 c 22.08007,11.2414 46.54484,17.23519 71.49024,17.19141 H 285.4082 c 13.81853,0.12579 27.25978,-4.54427 38.02344,-13.21094 0.0288,-0.0233 0.0574,-0.0467 0.0859,-0.0703 4.31977,-3.55835 7.69318,-7.42954 10.33398,-11.23242 l 9.99414,19.14258 c 0.27222,0.52108 0.58986,1.01714 0.94922,1.48242 19.15212,24.80111 48.51237,39.4665 79.75977,40.13867 0.51613,0.13091 1.04189,0.22038 1.57226,0.26758 9.33547,0.75205 18.12385,4.68754 24.90235,11.15039 6.36583,6.0663 16.89883,1.55512 16.90039,-7.23828 V 122.66016 c 0,-38.689839 -31.57773,-70.267369 -70.26563,-70.269535 -11.04277,-0.02428 -21.89948,2.429938 -31.80468,7.099609 C 345.67393,23.291393 307.32578,0.38083989 265.32031,0.38085938 Z"
     id="path24"
     inkscape:connector-curvature="0"
     sodipodi:nodetypes="cccccccccccccccccccccccsccsc" />
  <text
     x="0"
     y="527"
     fill="#000000"
     font-size="5px"
     font-weight="bold"
     font-family="'Helvetica Neue', Helvetica, Arial-Unicode, Arial, Sans-serif"
     id="text26">Created by AomAm</text>
  <text
     x="0"
     y="532"
     fill="#000000"
     font-size="5px"
     font-weight="bold"
     font-family="'Helvetica Neue', Helvetica, Arial-Unicode, Arial, Sans-serif"
     id="text28">from the Noun Project</text>
</svg>
