<svg xmlns="http://www.w3.org/2000/svg" xmlns:xlink="http://www.w3.org/1999/xlink" version="1.1" x="0px" y="0px" viewBox="0 0 20 25" enable-background="new 0 0 20 20" xml:space="preserve"><g><path fill="#000000" d="M12,14c-0.4,0-0.7,0.1-1.1,0.2C10.6,12.4,8.9,11,7,11c-1.9,0-3.4,1.3-3.9,3c0,0-0.1,0-0.1,0   c-1.7,0-3,1.3-3,3c0,1.7,1.3,3,3,3h9c1.7,0,3-1.3,3-3C15,15.3,13.7,14,12,14z"/><path fill="#000000" d="M19.9,6.6c-0.5,2.5-2.7,4.4-5.4,4.4C11.4,11,9,8.5,9,5.5c0-2.7,1.9-4.9,4.4-5.4C12.9,0,12.5,0,12,0   C7.6,0,4,3.6,4,8c0,0.6,0.1,1.2,0.2,1.7C5,9.3,6,9,7,9c2.2,0,4.1,1.2,5.2,3c1.8,0.1,3.4,1.1,4.2,2.7C18.6,13.2,20,10.8,20,8   C20,7.5,19.9,7,19.9,6.6z"/></g><text x="0" y="35" fill="#000000" font-size="5px" font-weight="bold" font-family="'Helvetica Neue', Helvetica, Arial-Unicode, Arial, Sans-serif">Created by ProSymbols</text><text x="0" y="40" fill="#000000" font-size="5px" font-weight="bold" font-family="'Helvetica Neue', Helvetica, Arial-Unicode, Arial, Sans-serif">from the Noun Project</text></svg>