<svg xmlns="http://www.w3.org/2000/svg" viewBox="0 0 512 640" x="0px" y="0px"><defs><style>.cls-1,.cls-2{stroke:#000;stroke-linecap:round;stroke-linejoin:round;stroke-width:20px;}.cls-2{fill:none;}</style></defs><title>Evil-Emoji-Emotion-Face-Expression-Feeling</title><path class="cls-1" d="M176.69,224.27a25.12,25.12,0,1,0,46.08,19.53Z"/><path class="cls-1" d="M335.31,224.27a25.12,25.12,0,1,1-46.08,19.53Z"/><path class="cls-1" d="M256,348.3a53.66,53.66,0,0,0,53.66-53.65H202.34A53.66,53.66,0,0,0,256,348.3Z"/><path class="cls-2" d="M130.15,188.58c-.5,0-1,0-1.52,0-22.7,0-41.09,19.43-41.09,43.4s18.39,43.41,41.09,43.41c.51,0,1,0,1.52,0Z"/><path class="cls-2" d="M130.15,247.15s-5.66-15.58-17.3-17.82"/><path class="cls-2" d="M384.85,188.58c.51,0,1,0,1.53,0,22.69,0,41.09,19.43,41.09,43.4s-18.4,43.41-41.09,43.41c-.51,0-1,0-1.53,0Z"/><path class="cls-2" d="M384.85,247.15s5.66-15.58,17.31-17.82"/><path class="cls-2" d="M317.11,386.52a40.07,40.07,0,0,0-.44-5.82,126.75,126.75,0,0,1-58.84,14.4h0a126.8,126.8,0,0,1-61.61-15.88,40.13,40.13,0,0,0-.67,7.3c0,27.27,27.21,49.37,60.78,49.37S317.11,413.79,317.11,386.52Z"/><path class="cls-2" d="M354,350.81A127,127,0,0,1,257.5,395.1h0a127.06,127.06,0,0,1-97.44-45.37C68.5,396.7,40.19,501.56,40.19,501.56H471.81S443.93,398.3,354,350.81Z"/><path class="cls-1" d="M366.42,51.19h0a50.46,50.46,0,0,0-28.23,8.59,82.54,82.54,0,0,0-75.6-49.4H78.11V44a115.52,115.52,0,0,0,24.59,71.41v79.88l13.73-8.13h13.73v-46.4A115.37,115.37,0,0,0,194.09,160h84.32a39,39,0,0,0,24.84-8.64c11.18-9.2,12.5-20.87,12.5-20.87L331.16,160a73.4,73.4,0,0,0,58.16,28.55l24.41,7.61V98.5A47.31,47.31,0,0,0,366.42,51.19Z"/><path class="cls-2" d="M331.16,160l-15.41-29.51s-1.32,11.67-12.5,20.87A39,39,0,0,1,278.41,160H194.09a115.49,115.49,0,0,1-60.93-17.29,128,128,0,0,0-3,27.6v97.77A127.34,127.34,0,0,0,257.5,395.42h0A127.35,127.35,0,0,0,384.85,268.07V188.4A73.43,73.43,0,0,1,331.16,160Z"/><text x="0" y="527" fill="#000000" font-size="5px" font-weight="bold" font-family="'Helvetica Neue', Helvetica, Arial-Unicode, Arial, Sans-serif">Created by AomAm</text><text x="0" y="532" fill="#000000" font-size="5px" font-weight="bold" font-family="'Helvetica Neue', Helvetica, Arial-Unicode, Arial, Sans-serif">from the Noun Project</text></svg>