<svg xmlns="http://www.w3.org/2000/svg" viewBox="0 0 48 60" x="0px" y="0px"><title>Artboard 7</title><g data-name="cup glass"><path d="M41,45.25H7a1,1,0,0,1-.832-.4453l-3-4.5A1,1,0,0,1,4,38.75H44a1,1,0,0,1,.832,1.5547l-3,4.5A1,1,0,0,1,41,45.25Zm-33.4648-2h32.93l1.6665-2.5H5.8687Z"/><path d="M29.25,37H18.75A9.7613,9.7613,0,0,1,9,27.25V11a1,1,0,0,1,1-1H38a1,1,0,0,1,1,1V27.25A9.7613,9.7613,0,0,1,29.25,37ZM11,12V27.25A7.7587,7.7587,0,0,0,18.75,35h10.5A7.7587,7.7587,0,0,0,37,27.25V12Z"/><path d="M38,21.125a11.2465,11.2465,0,0,1-5.0586-1.0811,9.2952,9.2952,0,0,0-4.2705-.9189,9.3059,9.3059,0,0,0-4.2734.9189,11.2619,11.2619,0,0,1-5.062,1.0811,11.2672,11.2672,0,0,1-5.0615-1.0806A9.3,9.3,0,0,0,10,19.125a1,1,0,0,1,0-2,11.2619,11.2619,0,0,1,5.062,1.0811,9.3059,9.3059,0,0,0,4.2734.9189,9.3,9.3,0,0,0,4.2739-.9194,11.2672,11.2672,0,0,1,5.0615-1.0806,11.2465,11.2465,0,0,1,5.0586,1.0811A9.2952,9.2952,0,0,0,38,19.125a1,1,0,0,1,0,2Z"/><path d="M39,27a1,1,0,0,1,0-2,5,5,0,0,0,0-10,1,1,0,0,1,0-2,7,7,0,0,1,0,14Z"/></g><g><path d="M28.521,9.1367a1.0047,1.0047,0,0,1-.9937-1.0117,2.095,2.095,0,0,1,.793-1.6094,1.57,1.57,0,0,0,.1655-.1655c-.0225.0146-.1045-.0615-.1655-.1177a2.095,2.095,0,0,1-.793-1.6094,2.0915,2.0915,0,0,1,.7939-1.6084,1.6094,1.6094,0,0,0,.165-.165.9835.9835,0,0,1,.9932-.9873,1.0052,1.0052,0,0,1,.9932,1.0127,2.0915,2.0915,0,0,1-.7939,1.6084,1.6094,1.6094,0,0,0-.165.165c.0244-.02.1045.06.166.1162a2.095,2.095,0,0,1,.793,1.6094,2.095,2.095,0,0,1-.793,1.6094,1.57,1.57,0,0,0-.1655.1655A.9839.9839,0,0,1,28.521,9.1367Z"/><path d="M18.521,9.1367a1.0047,1.0047,0,0,1-.9937-1.0117,2.095,2.095,0,0,1,.793-1.6094,1.57,1.57,0,0,0,.1655-.1655c-.0225.0146-.1045-.0615-.1655-.1177a2.095,2.095,0,0,1-.793-1.6094,2.0915,2.0915,0,0,1,.7939-1.6084,1.6094,1.6094,0,0,0,.165-.165.9835.9835,0,0,1,.9932-.9873,1.0052,1.0052,0,0,1,.9932,1.0127,2.0915,2.0915,0,0,1-.7939,1.6084,1.6094,1.6094,0,0,0-.165.165c.0249-.02.1045.06.166.1162a2.095,2.095,0,0,1,.793,1.6094,2.095,2.095,0,0,1-.793,1.6094,1.57,1.57,0,0,0-.1655.1655A.9839.9839,0,0,1,18.521,9.1367Z"/></g><text x="0" y="63" fill="#000000" font-size="5px" font-weight="bold" font-family="'Helvetica Neue', Helvetica, Arial-Unicode, Arial, Sans-serif">Created by Blangcon</text><text x="0" y="68" fill="#000000" font-size="5px" font-weight="bold" font-family="'Helvetica Neue', Helvetica, Arial-Unicode, Arial, Sans-serif">from the Noun Project</text></svg>