<svg xmlns="http://www.w3.org/2000/svg" viewBox="0 0 512 640" x="0px" y="0px"><title>Artboard 7</title><g data-name="Layer 2"><path d="M411.89,159.59A87.44,87.44,0,0,0,372.57,169,141.44,141.44,0,0,0,238.43,71.8a141.18,141.18,0,0,0-130.82,88.11c-2.49-.21-5-.33-7.49-.33A87.22,87.22,0,0,0,13,246.7a86.14,86.14,0,0,0,8.2,36.92l0,.05.21.46.12.23c.08.16.16.32.25.48s.25.43.39.64l.23.34c.16.23.33.46.51.68l.2.24q.26.3.53.59l.18.19c.25.24.5.48.77.7l.1.08c.23.18.46.36.71.53l.31.21.56.34.35.2c.26.14.53.27.81.39l.46.18.49.18.48.15.78.2.43.09.76.12.33,0c.36,0,.72.06,1.08.06H479.73c.36,0,.72,0,1.08-.05l.34,0,.74-.11.51-.1.7-.18.51-.16.45-.16.5-.2c.27-.12.53-.24.78-.38l.4-.23.5-.3.36-.24q.32-.22.62-.46l.18-.14c.26-.21.5-.44.74-.67l.23-.24q.24-.25.48-.52l.25-.29c.15-.18.29-.37.42-.57s.27-.39.4-.6.19-.3.27-.45.19-.36.29-.55l.1-.18.17-.36.08-.17A86.14,86.14,0,0,0,499,246.7,87.21,87.21,0,0,0,411.89,159.59Z"/><path d="M81.29,362.72l-22.87-4.53,26.11-35A12,12,0,0,0,65.3,308.83L27.82,359.09A12,12,0,0,0,35.1,378l22.49,4.46L29.1,419.3a12,12,0,1,0,19,14.69l40.37-52.16a12,12,0,0,0-7.16-19.12Z"/><path d="M314.82,363.43,292,358.9l26.11-35a12,12,0,0,0-19.24-14.35L261.34,359.8a12,12,0,0,0,7.29,18.95l22.49,4.46L262.62,420a12,12,0,1,0,19,14.69L322,382.55a12,12,0,0,0-7.16-19.12Z"/><path d="M198.06,364.6l-22.87-4.53,26.11-35a12,12,0,1,0-19.24-14.35L144.58,361a12,12,0,0,0,7.29,18.95l22.49,4.46-28.5,36.82a12,12,0,1,0,19,14.69l40.37-52.16a12,12,0,0,0-7.16-19.12Z"/><path d="M431.58,365.31l-22.87-4.53,26.11-35a12,12,0,1,0-19.24-14.35L378.1,361.68a12,12,0,0,0,7.29,18.95l22.49,4.46-28.5,36.82a12,12,0,1,0,19,14.69l40.37-52.16a12,12,0,0,0-7.16-19.12Z"/></g><text x="0" y="527" fill="#000000" font-size="5px" font-weight="bold" font-family="'Helvetica Neue', Helvetica, Arial-Unicode, Arial, Sans-serif">Created by Yoyon Pujiyono</text><text x="0" y="532" fill="#000000" font-size="5px" font-weight="bold" font-family="'Helvetica Neue', Helvetica, Arial-Unicode, Arial, Sans-serif">from the Noun Project</text></svg>