<svg xmlns="http://www.w3.org/2000/svg" viewBox="0 0 64 80" x="0px" y="0px"><title>weather,windy,air</title><g data-name="Layer 2"><path d="M52,48H18.52a1,1,0,0,0,0,2H52a2.52,2.52,0,1,1-2.52,2.52,1,1,0,0,0-2,0A4.52,4.52,0,1,0,52,48Z"/><path d="M47.35,41.58a1,1,0,0,0,.12-.91,3,3,0,0,1-.17-1,8.36,8.36,0,0,1,8.35-8.35H56a1,1,0,0,0,.8-.33,1,1,0,0,0,.24-.83,10.13,10.13,0,0,0-10-8.5h-.15a17.51,17.51,0,0,0-34.56,0,10.17,10.17,0,0,0-1.47,20.25,1,1,0,0,0,.41.09H46.53A1,1,0,0,0,47.35,41.58Z"/><path d="M55.65,33.31a6.36,6.36,0,0,0-6.35,6.35,1,1,0,1,0,2,0A4.35,4.35,0,1,1,55.65,44H13a1,1,0,0,0,0,2H55.65a6.35,6.35,0,1,0,0-12.69Z"/></g><text x="0" y="79" fill="#000000" font-size="5px" font-weight="bold" font-family="'Helvetica Neue', Helvetica, Arial-Unicode, Arial, Sans-serif">Created by Misbahul Munir</text><text x="0" y="84" fill="#000000" font-size="5px" font-weight="bold" font-family="'Helvetica Neue', Helvetica, Arial-Unicode, Arial, Sans-serif">from the Noun Project</text></svg>