<svg xmlns="http://www.w3.org/2000/svg" xmlns:xlink="http://www.w3.org/1999/xlink" version="1.1" x="0px" y="0px" viewBox="0 0 16 20" style="enable-background:new 0 0 16 16;" xml:space="preserve"><g><polygon points="5,10 3,13 5,13 4,15 8,12 6,12 8,10  "/><polygon points="11,10 9,13 11,13 10,15 14,12 12,12 14,10  "/><path d="M12,3c-0.018,0-0.034,0.005-0.052,0.005C11.256,1.812,9.979,1,8.5,1C6.633,1,5.078,2.284,4.637,4.014   C4.591,4.011,4.547,4,4.5,4C3.119,4,2,5.119,2,6.5C2,7.881,3.119,9,4.5,9H12c1.657,0,3-1.343,3-3S13.657,3,12,3z"/></g><text x="0" y="31" fill="#000000" font-size="5px" font-weight="bold" font-family="'Helvetica Neue', Helvetica, Arial-Unicode, Arial, Sans-serif">Created by icon 54</text><text x="0" y="36" fill="#000000" font-size="5px" font-weight="bold" font-family="'Helvetica Neue', Helvetica, Arial-Unicode, Arial, Sans-serif">from the Noun Project</text></svg>