<svg xmlns="http://www.w3.org/2000/svg" xmlns:xlink="http://www.w3.org/1999/xlink" version="1.1" x="0px" y="0px" viewBox="0 0 100 125" style="enable-background:new 0 0 100 100;" xml:space="preserve"><g><path d="M46.52506,69.25295c-2.22268,0-3.79979-0.85291-4.82073-1.70779c-4.05527-3.39594-5.43585-11.52613-4.10244-24.17048   c0.29773-3.0186-0.49917-5.41914-2.50764-7.54258c-0.00197-0.00196-0.00393-0.00393-0.0059-0.0059   c-2.31112-2.46539-3.34778-5.29533-2.84566-7.76269c0.30265-1.48474,1.28723-3.52957,4.25867-4.84235   c3.7487-1.66456,5.98808-0.56402,6.98937,0.24172c2.01044,1.61543,2.6796,4.6586,1.8827,8.56844   c-0.21814,0.99343-0.58171,4.52496,3.65338,9.30442c7.4512,8.38174,10.48553,15.2021,9.02143,20.27242   c-0.98458,3.40969-3.88724,5.83479-8.62838,7.20653C48.35372,69.12521,47.39075,69.25295,46.52506,69.25295z M37.58519,33.48463   c2.69925,2.85647,3.81846,6.20524,3.42148,10.23791c-1.15654,10.96799-0.10121,18.68942,2.89381,21.19706   c1.15458,0.9669,2.64521,1.16539,4.5682,0.60923c3.53645-1.0239,5.65301-2.6629,6.29171-4.87183   c0.76841-2.657-0.04716-7.77252-8.29331-17.04943c-5.16366-5.82693-4.82663-10.5327-4.44242-12.28471   c0.50015-2.4536,0.24173-4.45323-0.67801-5.19216c-0.9158-0.735-2.55973-0.17884-3.45882,0.22011   c-1.31573,0.58073-2.08512,1.38648-2.29147,2.39563C35.31829,30.11228,36.04346,31.83972,37.58519,33.48463z"/><path d="M24.2422,78.86494c-0.87748,0-1.62427-0.67211-1.70288-1.56236C19.9059,47.32777,28.607,26.4815,34.22365,25.11959   c0.92072-0.21814,1.8434,0.34293,2.06645,1.2607c0.22109,0.91384-0.33704,1.83553-1.24792,2.0635   c-2.57152,0.93742-11.70988,18.77491-9.09316,48.56007c0.08254,0.94135-0.61316,1.77068-1.55549,1.85322   C24.34341,78.86298,24.29232,78.86494,24.2422,78.86494z"/><path d="M24.24417,78.86494H9.46951c-0.94528,0-1.71172-0.76644-1.71172-1.71172s0.76644-1.71172,1.71172-1.71172h13.13271   c0.80083-14.60958,6.9255-35.77815,13.51003-41.14227c0.73205-0.5994,1.81097-0.48738,2.40742,0.24566   c0.59743,0.73303,0.48738,1.81097-0.24566,2.40742c-5.47221,4.45815-11.92016,25.52255-12.3191,40.24809   C25.92936,78.12601,25.17078,78.86494,24.24417,78.86494z"/><path d="M90.626,63.11355c-3.73788,0-7.73714-4.05232-9.24448-5.57931c-0.24762-0.25155-0.41073-0.57385-0.46969-0.9217   c-0.93742-5.63434-1.33636-9.98145-1.21844-13.28993c0.01768-0.48246,0.23779-0.93644,0.60725-1.24792   c3.94424-3.32518,7.25173-4.46797,10.08757-3.49616c2.89873,0.99244,4.85414,4.03267,5.98022,9.29558   c0.01572,0.07566,0.02554,0.15132,0.03144,0.22895c0.56992,7.52686-0.45004,12.05477-3.20727,14.24798   C92.37506,62.88755,91.50839,63.11355,90.626,63.11355z M84.19967,55.512c3.87152,3.83025,6.15317,4.61831,6.98839,4.06805   c1.06516-0.85488,2.36222-3.56691,1.80802-11.10262c-0.82933-3.80962-2.11459-6.11189-3.71626-6.66019   c-1.45232-0.49622-3.58656,0.32819-6.18264,2.39169C83.06966,47.08506,83.43323,50.79838,84.19967,55.512z"/><path d="M74.61913,63.38868c-0.21028,0-0.41859-0.00983-0.63084-0.03144c-2.32684-0.2319-4.50433-1.74317-6.46957-4.48861   l-0.72517-1.04354c-1.08481-1.57612-2.57053-3.73395-4.68906-6.34772c-0.63477-0.76448-2.60394-3.13554-1.64491-5.2295   c0.55616-1.21845,1.81588-1.85617,3.73985-1.89449l1.20665-0.03931c2.2954-0.06485,4.46306-0.12577,6.11583-1.01308   c4.03267-2.1372,8.54485-4.15451,11.1881-1.02094c0.61119,0.72223,0.51882,1.80212-0.20242,2.41135   c-0.72321,0.60726-1.80212,0.51882-2.41135-0.20438c-0.46576-0.55027-1.69207-0.95904-6.96284,1.83455   c-2.35829,1.26561-5.03887,1.34127-7.62906,1.41399l-1.20469,0.03832c-0.23976,0.00491-0.42056,0.02162-0.55813,0.04225   c0.13364,0.29086,0.41467,0.77529,1.00817,1.49063c2.21483,2.73266,3.74574,4.95338,4.86397,6.57667l0.69569,1.00423   c1.34029,1.87091,2.73365,2.93607,4.01891,3.06381c1.01013,0.10809,2.07136-0.36946,3.16796-1.39139   c0.60136-0.54437,1.12019-1.03765,1.58398-1.47982c1.09071-1.03765,1.87877-1.78837,2.67862-2.23841   c0.82147-0.46969,1.86501-0.17491,2.33077,0.64853c0.46577,0.82343,0.17491,1.86697-0.64853,2.33077   c-0.43038,0.24369-1.15948,0.93742-2.00258,1.73923c-0.48148,0.4579-1.01996,0.97083-1.62525,1.51913   C78.17032,62.61045,76.42126,63.38868,74.61913,63.38868z"/><path d="M85.96642,78.86494h-6.38899c-0.47755,0-0.93349-0.20045-1.25775-0.55026c-0.3223-0.35178-0.48542-0.82147-0.44807-1.29706   c0.28103-3.5453,1.62918-7.08076,4.10931-10.77148c-1.18111-1.16145-3.09918-2.3347-5.72278-3.50009   c-0.86274-0.38519-1.25185-1.39532-0.86864-2.26003c0.38715-0.8647,1.40318-1.24989,2.26003-0.86864   c3.91869,1.74317,6.50101,3.55708,7.8924,5.54394c0.42056,0.5994,0.4127,1.39729-0.01769,1.98882   c-2.10674,2.89873-3.41755,5.62845-3.97371,8.29134h4.41589c0.94527,0,1.71172,0.76644,1.71172,1.71172   S86.9117,78.86494,85.96642,78.86494z"/><path d="M89.67483,50.40042c-0.73697,0-1.41694-0.47755-1.63901-1.21845c-0.44807-1.48769-1.12608-1.85027-1.59774-1.99373   c-0.90401-0.27415-1.41497-1.23024-1.13984-2.13425s1.2381-1.41497,2.13425-1.13984   c1.89449,0.57483,3.19941,2.01535,3.88135,4.28127c0.2712,0.90499-0.24172,1.8601-1.14574,2.13228   C90.00302,50.37684,89.83794,50.40042,89.67483,50.40042z"/><path d="M35.67498,70.65221c-10.83338,0-20.85904-2.5666-28.40851-9.71221c-0.34588-0.32623-0.54044-0.78413-0.53553-1.25972   c0.00491-0.47559,0.20832-0.92956,0.56108-1.24989c6.20426-5.63237,11.78554-9.86353,17.06122-12.93225   c0.8195-0.47854,1.86501-0.19751,2.33962,0.61806c0.47559,0.81754,0.19849,1.86501-0.61807,2.33962   c-4.66548,2.71399-9.6051,6.39783-15.06159,11.23429c15.35834,12.73278,41.37122,6.91371,62.52112,0.31444   c0.89419-0.28496,1.86108,0.2201,2.14211,1.12411c0.283,0.90205-0.22011,1.86108-1.12411,2.14211   C62.28529,67.10102,48.42054,70.65221,35.67498,70.65221z M62.51916,48.11878c-0.35767,0-0.72124-0.113-1.02979-0.34588   c-4.66154-3.52171-9.79573-5.36412-15.26008-5.47417c-0.94528-0.01867-1.696-0.79985-1.67635-1.74513   c0.01769-0.94626,0.73402-1.69109,1.74513-1.67635c6.20033,0.12479,12.00565,2.1991,17.2548,6.16397   c0.75465,0.56992,0.90401,1.64294,0.33409,2.39759C63.55091,47.88393,63.03798,48.11878,62.51916,48.11878z M32.34488,45.20924   c-0.67211,0-1.30885-0.39796-1.58202-1.05632c-0.3616-0.87355,0.05306-1.87484,0.92563-2.23644   c2.42412-1.00423,4.88165-1.78345,7.30577-2.31505c0.92465-0.20144,1.83652,0.38126,2.03796,1.30492   c0.20242,0.92268-0.38126,1.83553-1.30492,2.03795c-2.22662,0.48836-4.49057,1.20666-6.72799,2.13425   C32.7851,45.16699,32.56303,45.20924,32.34488,45.20924z"/><path d="M12.89197,57.53031c-0.26531,0-0.53061-0.06092-0.7743-0.18473c-4.29896-2.17945-8.17638-4.75391-11.52514-7.64674   c-0.71535-0.61806-0.79396-1.69895-0.17589-2.4143c0.61905-0.71141,1.69895-0.79297,2.4143-0.17589   c2.44083,2.10968,5.18823,4.04053,8.19505,5.76011c-0.4353-2.83191-1.72351-5.2747-3.89609-7.40797   c-0.67506-0.66228-0.68489-1.74611-0.0226-2.42019c0.66229-0.67604,1.7471-0.6839,2.42019-0.0226   c3.55413,3.49125,5.26094,7.8187,5.07425,12.86347c-0.02162,0.58368-0.33802,1.11626-0.84112,1.41105   C13.49333,57.44973,13.19265,57.53031,12.89197,57.53031z"/><path d="M87.67815,41.72979c-0.22404,0-0.45004-0.04324-0.66622-0.1356c-0.8706-0.36848-1.2774-1.37272-0.9099-2.24332   c3.09328-7.30774,5.53215-13.22999,7.05521-17.12607c0.34392-0.88239,1.34226-1.31671,2.21679-0.97083   c0.88043,0.34392,1.31474,1.33636,0.97083,2.21679c-1.53485,3.92458-3.9855,9.87729-7.09058,17.21451   C88.97717,41.33772,88.34436,41.72979,87.67815,41.72979z"/><path d="M91.72653,43.15557c-0.28299,0-0.56992-0.07075-0.83522-0.21912c-0.82344-0.46183-1.11823-1.50439-0.65639-2.32881   c2.79654-4.98974,4.96616-9.51765,6.45188-13.45795c0.33409-0.88534,1.31867-1.3344,2.20499-0.99834   c0.88436,0.33409,1.33047,1.32064,0.99834,2.205c-1.54665,4.10047-3.78898,8.78462-6.66805,13.92372   C92.90765,42.84015,92.32594,43.15557,91.72653,43.15557z"/><path d="M70.50785,78.86494h-6.38899c-0.47755,0-0.93348-0.20045-1.25775-0.55026c-0.3223-0.35178-0.48542-0.82147-0.44807-1.29706   c0.28103-3.54726,1.62918-7.08273,4.10931-10.77344c-1.18111-1.15949-3.10114-2.33274-5.72474-3.49813   c-0.86274-0.38519-1.25185-1.39532-0.86863-2.26003c0.38715-0.8647,1.39925-1.24989,2.26003-0.86864   c3.92065,1.74317,6.50297,3.55708,7.89436,5.54394c0.42056,0.5994,0.4127,1.39925-0.01768,1.98882   c-2.10674,2.89677-3.41755,5.62648-3.97371,8.29134h4.41589c0.94528,0,1.71172,0.76644,1.71172,1.71172   S71.45313,78.86494,70.50785,78.86494z"/><path d="M31.77398,78.86494h-2.33863c-0.94528,0-1.71172-0.76644-1.71172-1.71172s0.76644-1.71172,1.71172-1.71172h0.68587   c0.10612-2.15783,0.33114-4.28815,0.70356-6.70736c0.14346-0.93152,1.01308-1.57809,1.95148-1.43069   c0.93447,0.14543,1.57514,1.018,1.43069,1.95345c-0.44415,2.88496-0.66622,5.33169-0.72223,7.93366   C33.46507,78.12011,32.70452,78.86494,31.77398,78.86494z"/><path d="M59.09768,78.86494H55.6762c-0.47755,0-0.93349-0.20045-1.25775-0.55026c-0.3223-0.35178-0.48542-0.82147-0.44807-1.29706   c0.29675-3.73199,1.00423-8.11447,4.02088-12.32598c0.55027-0.76644,1.61543-0.94921,2.38776-0.39501   c0.76841,0.55027,0.94528,1.61935,0.39501,2.38776c-2.0635,2.88104-2.84566,5.95074-3.2053,8.7571h1.52896   c0.94528,0,1.71172,0.76644,1.71172,1.71172S60.04296,78.86494,59.09768,78.86494z"/></g><text x="0" y="115" fill="#000000" font-size="5px" font-weight="bold" font-family="'Helvetica Neue', Helvetica, Arial-Unicode, Arial, Sans-serif">Created by Grégory Montigny</text><text x="0" y="120" fill="#000000" font-size="5px" font-weight="bold" font-family="'Helvetica Neue', Helvetica, Arial-Unicode, Arial, Sans-serif">from the Noun Project</text></svg>