<svg xmlns="http://www.w3.org/2000/svg" data-name="Layer 1" viewBox="0 0 100 125" x="0px" y="0px"><title>Artboard 661</title><circle cx="33.27" cy="21.79" r="4"/><path d="M95.4,33.79v-.2a2.07,2.07,0,0,0-2.12-1.93L79.86,32h0a3.29,3.29,0,0,0-.71.12A31.86,31.86,0,0,0,80,21.34a3.24,3.24,0,0,0-.18-.73,2.57,2.57,0,0,0-3.36-1.41l-.22.09-13,5.26L56.78,27.2l-3,1.22A.92.92,0,0,1,53,28.3a.9.9,0,0,1-.43-.63,1.27,1.27,0,0,1,0-.2v-.83l0-1.75,0-3.57a19.07,19.07,0,0,0-.52-4.19A19.47,19.47,0,0,0,25.28,3.87,19.65,19.65,0,0,0,14.35,16.41a21.36,21.36,0,0,0-.77,5.76A15.78,15.78,0,0,0,4.66,24h0a6.08,6.08,0,0,0-.14,1.77,6.18,6.18,0,0,0,.14,1.77h0a15.89,15.89,0,0,0,8.89,1.83v1.94c-.06,4.44,0,9.89,1.36,14.78A41.46,41.46,0,0,0,32.38,70.43a38.7,38.7,0,0,0,10.77,4.95,36.33,36.33,0,0,0,.35,22.19,4.14,4.14,0,0,0,1.77.22A4.11,4.11,0,0,0,47,97.57v0a36.15,36.15,0,0,0,.65-21.12,41.25,41.25,0,0,0,13.8.08c.48-.07.94-.2,1.41-.29a36.25,36.25,0,0,0,.59,21.37,4.14,4.14,0,0,0,1.77.22A4.11,4.11,0,0,0,67,97.57v0a36.26,36.26,0,0,0,.26-22.47A40.37,40.37,0,0,0,95.4,33.79ZM82.6,58a35.28,35.28,0,0,1-22.06,12.1A34.64,34.64,0,0,1,22.08,44.3c-1.08-4.15-1.16-8.11-1.1-13v-7a19.88,19.88,0,0,1,.46-5.93,12.41,12.41,0,0,1,17.3-7.84,12.58,12.58,0,0,1,6.77,8.17,11.92,11.92,0,0,1,.4,2.73L46,24.89l0,1.75,0,.92a7.37,7.37,0,0,0,9.78,6.82c1.53-.61,2.26-1,3.42-1.49L65.6,30l9.14-4.12A25.54,25.54,0,0,1,70.47,40c-3.43,5.34-9.16,9-15.31,11.3-1.3.48-2.13,1.57-1.89,2.47s1.58,1.24,3,.78l.4-.12c6.67-2.13,13.28-5.91,17.62-12a29.89,29.89,0,0,0,3.93-7.37,3.67,3.67,0,0,0,1.63.46h.39l10.83.28A36.12,36.12,0,0,1,82.6,58Z"/><text x="0" y="115" fill="#000000" font-size="5px" font-weight="bold" font-family="'Helvetica Neue', Helvetica, Arial-Unicode, Arial, Sans-serif">Created by Gregor Cresnar</text><text x="0" y="120" fill="#000000" font-size="5px" font-weight="bold" font-family="'Helvetica Neue', Helvetica, Arial-Unicode, Arial, Sans-serif">from the Noun Project</text></svg>