<svg xmlns="http://www.w3.org/2000/svg" xmlns:xlink="http://www.w3.org/1999/xlink" version="1.1" x="0px" y="0px" viewBox="0 0 100 125" style="enable-background:new 0 0 100 100;" xml:space="preserve"><g><path style="" d="M93.32,59.923c-4.312,1.343-7.307-2.542-6.875-6.553   c-2.385,4.384-7.383,4.497-9.105-0.468c-0.919-2.647,0.357-5.366-0.473-7.901c-0.787-2.402-3.361-3.601-5.611-4.252   c1.753-0.553,3.623-0.849,5.461-0.849C87.28,39.9,91.891,51.075,93.32,59.923z M75.244,19.59   c-19.979-3.305-38.234,4.988-51.571,19.639C14.247,49.584,3.711,69.727,0,81.132h88.766c-9.219,0-18.816-2.802-24.869-10.13   c-4.494-5.438-6.496-12.861-5.021-19.797c1.879-8.822,9.328-14.581,18.458-14.273c8.763,0.296,14.401,7.411,17.136,15.08   c0.613,1.719,1.129,3.491,1.445,5.291C95.914,57.303,113.641,28.377,75.244,19.59z" fill-rule="evenodd" clip-rule="evenodd"/></g><text x="0" y="115" fill="#000000" font-size="5px" font-weight="bold" font-family="'Helvetica Neue', Helvetica, Arial-Unicode, Arial, Sans-serif">Created by b farias</text><text x="0" y="120" fill="#000000" font-size="5px" font-weight="bold" font-family="'Helvetica Neue', Helvetica, Arial-Unicode, Arial, Sans-serif">from the Noun Project</text></svg>