<svg xmlns="http://www.w3.org/2000/svg" xmlns:xlink="http://www.w3.org/1999/xlink" version="1.1" x="0px" y="0px" viewBox="0 0 60 75" style="enable-background:new 0 0 60 60;" xml:space="preserve"><style type="text/css">
	.st0{fill:none;stroke:#000000;stroke-width:2;stroke-linecap:round;stroke-linejoin:round;}
</style><title>40 -Drum Set- (sound, audio, play, music)</title><desc>Created with Sketch.</desc><g><g transform="translate(-1200.000000, -710.000000)"><g transform="translate(1201.000000, 711.000000)"><path class="st0" d="M45,37c0,8.8-7.2,16-16,16s-16-7.2-16-16s7.2-16,16-16S45,28.2,45,37L45,37z"/><path class="st0" d="M34.9,51.9L41,58"/><path class="st0" d="M23.1,51.9L17,58"/><path class="st0" d="M29,21v-9"/><path class="st0" d="M8,27v26"/><path class="st0" d="M8,53l5,5"/><path class="st0" d="M8,53l-5,5"/><path class="st0" d="M50,27v26"/><path class="st0" d="M50,53l5,5"/><path class="st0" d="M50,53l-5,5"/><path class="st0" d="M39,16v8.5c0.9,0.7,1.7,1.6,2.5,2.5H58V16H39L39,16z"/><path class="st0" d="M19,24.5V16H0v11h16.5C17.3,26.1,18.1,25.3,19,24.5L19,24.5z"/><path class="st0" d="M18,8c2.4,2.4,7,4,11,4s8.6-1.6,11-4H18L18,8z"/><path class="st0" d="M40,4c-2.4-2.4-7-4-11-4s-8.6,1.6-11,4H40L40,4z"/><path class="st0" d="M29,4v4"/><path class="st0" d="M58,0L47,11"/><path class="st0" d="M0,1l10,10"/><polygon class="st0" points="29,28 31.7,33.3 37.8,34.2 33.4,38.4 34.4,44.5 29,41.6 23.6,44.5 24.6,38.4      20.2,34.2 26.3,33.3    "/><path class="st0" d="M0,24h5"/><path class="st0" d="M0,21h3"/><path class="st0" d="M53,24h5"/><path class="st0" d="M55,21h3"/></g></g></g><text x="0" y="75" fill="#000000" font-size="5px" font-weight="bold" font-family="'Helvetica Neue', Helvetica, Arial-Unicode, Arial, Sans-serif">Created by Ben Davis</text><text x="0" y="80" fill="#000000" font-size="5px" font-weight="bold" font-family="'Helvetica Neue', Helvetica, Arial-Unicode, Arial, Sans-serif">from the Noun Project</text></svg>