<svg xmlns="http://www.w3.org/2000/svg" viewBox="0 0 58 85" x="0px" y="0px"><path fill="#000000" d="M572,344.289956 L572,362 C572,363.104569 571.104569,364 570,364 C568.895431,364 568,363.104569 568,362 L568,344.289956 C565.391377,346.081912 562.72227,347 560,347 C556.077592,347 552.265554,345.093981 548.585786,341.414214 C547.804738,340.633165 547.804738,339.366835 548.585786,338.585786 C549.366835,337.804738 550.633165,337.804738 551.414214,338.585786 C554.401113,341.572686 557.255741,343 560,343 C562.744259,343 565.598887,341.572686 568.585786,338.585786 C568.947715,338.223858 569.447715,338 570,338 C570.552285,338 571.052285,338.223858 571.414214,338.585786 C574.401113,341.572686 577.255741,343 580,343 C582.744259,343 585.598887,341.572686 588.585786,338.585786 C589.366835,337.804738 590.633165,337.804738 591.414214,338.585786 C592.195262,339.366835 592.195262,340.633165 591.414214,341.414214 C587.734446,345.093981 583.922408,347 580,347 C577.27773,347 574.608623,346.081912 572,344.289956 Z M548.897367,361.367544 C549.246662,362.415431 548.680342,363.548071 547.632456,363.897367 C546.584569,364.246662 545.451929,363.680342 545.102633,362.632456 C542.368877,354.431186 541,346.217924 541,338 C541,332.506666 542.504379,327.965669 545.721424,321.710304 C549.791349,313.796562 550,313.321301 550,311 C550,306.640458 549.070719,302.613575 547.211146,298.894427 C546.717167,297.90647 547.117616,296.705124 548.105573,296.211146 C549.09353,295.717167 550.294876,296.117616 550.788854,297.105573 C552.929281,301.386425 554,306.026209 554,311 C554,312.937484 553.46558,314.918233 552.425038,317.288355 C552.025534,318.198336 551.562524,319.146338 550.929496,320.372537 C550.705642,320.80615 549.590399,322.933373 549.278576,323.539696 C546.327517,329.277865 545,333.285 545,338 C545,345.782076 546.29779,353.568814 548.897367,361.367544 Z M591.102633,361.367544 C593.70221,353.568814 595,345.782076 595,338 C595,333.285 593.672483,329.277865 590.721424,323.539696 C590.409601,322.933373 589.294358,320.80615 589.070504,320.372537 C588.437476,319.146338 587.974466,318.198336 587.574962,317.288355 C586.53442,314.918233 586,312.937484 586,311 C586,306.026209 587.070719,301.386425 589.211146,297.105573 C589.705124,296.117616 590.90647,295.717167 591.894427,296.211146 C592.882384,296.705124 593.282833,297.90647 592.788854,298.894427 C590.929281,302.613575 590,306.640458 590,311 C590,313.321301 590.208651,313.796562 594.278576,321.710304 C597.495621,327.965669 599,332.506666 599,338 C599,346.217924 597.631123,354.431186 594.897367,362.632456 C594.548071,363.680342 593.415431,364.246662 592.367544,363.897367 C591.319658,363.548071 590.753338,362.415431 591.102633,361.367544 Z" transform="translate(-541 -296)"/><text x="0" y="83" fill="#000000" font-size="5px" font-weight="bold" font-family="'Helvetica Neue', Helvetica, Arial-Unicode, Arial, Sans-serif">Created by Andrejs Kirma</text><text x="0" y="88" fill="#000000" font-size="5px" font-weight="bold" font-family="'Helvetica Neue', Helvetica, Arial-Unicode, Arial, Sans-serif">from the Noun Project</text></svg>