<svg xmlns="http://www.w3.org/2000/svg" xmlns:xlink="http://www.w3.org/1999/xlink" version="1.1" x="0px" y="0px" viewBox="0 0 512 640" style="enable-background:new 0 0 512 512;" xml:space="preserve"><title>a1</title><g><path d="M453,460.3v-48.6c0-5.5-4.3-10.4-9.8-10.4H437v-119h6.2c5.5,0,9.8-4.9,9.8-10.4v-48.6c0.1-5.4-4.2-9.9-9.6-10   c-0.1,0-0.1,0-0.2,0H68.8c-5.4,0-9.8,4.4-9.8,9.8c0,0.1,0,0.1,0,0.2v48.6c0,5.5,4.3,10.4,9.8,10.4H75v119h-6.2   c-5.5,0-9.8,4.9-9.8,10.4v48.6c-0.1,5.4,4.2,9.8,9.6,9.9c0.1,0,0.1,0,0.2,0h374.4c5.4,0,9.8-4.3,9.8-9.7   C453,460.4,453,460.4,453,460.3z M433,450.2H79v-29h354V450.2z M370.3,379.4l-45.7-97.2H416L370.3,379.4z M417,325.7v75.6h-35.3   L417,325.7z M358.8,401.2h-91.4l45.7-97.3L358.8,401.2z M255.9,379.4l-45.7-97.2h91.3L255.9,379.4z M244.5,401.2h-91.4l45.7-97.3   L244.5,401.2z M141.6,379.4L96,282.2h91.3L141.6,379.4z M130.2,401.2H95v-75.5L130.2,401.2z M433,262.2H79v-29h354V262.2z"/><path d="M77.2,58.9l69.7,69.7c-9.2,15.8-6.7,35.8,6.2,48.7l0,0c15.7,15.6,41.1,15.6,56.7-0.1c7.5-7.5,11.7-17.7,11.7-28.4   c-0.1-22-18-39.8-40-39.7c0,0,0,0,0,0h0c-7.2-0.1-14.2,1.8-20.4,5.4L91.3,44.8c-3.9-3.9-10.2-4-14.1-0.1   C73.3,48.5,73.2,54.8,77.2,58.9C77.1,58.8,77.1,58.8,77.2,58.9z M167.1,135C167.1,135,167.2,135,167.1,135L167.1,135   c3.8-3.8,8.9-5.8,14.3-5.8h0c11-0.1,19.9,8.7,20.1,19.6c0.1,5.4-2.1,10.6-5.9,14.3c-7.9,7.8-20.6,7.8-28.4,0   C159.4,155.4,159.4,142.8,167.1,135z"/><path d="M330.6,189L330.6,189c22.1,0,40.1-17.9,40.1-40c0-7.2-1.9-14.3-5.6-20.5l69.7-69.7c3.9-3.9,3.9-10.2,0-14.1   s-10.2-3.9-14.1,0L351,114.6c-6.2-3.6-13.3-5.5-20.4-5.4h0c-22,0-39.9,17.9-39.9,39.9S308.6,189,330.6,189z M316.4,134.8   c0,0,0,0.2,0,0.2c3.8-3.7,8.9-5.8,14.1-5.7h0c10.9-0.2,20,8.6,20.1,19.5c0.1,5.4-2,10.6-5.9,14.4c-7.9,7.9-20.6,7.9-28.4,0   c-3.8-3.8-5.9-8.9-5.9-14.2C310.5,143.6,312.6,138.5,316.4,134.8z"/></g><text x="0" y="527" fill="#000000" font-size="5px" font-weight="bold" font-family="'Helvetica Neue', Helvetica, Arial-Unicode, Arial, Sans-serif">Created by Paisley</text><text x="0" y="532" fill="#000000" font-size="5px" font-weight="bold" font-family="'Helvetica Neue', Helvetica, Arial-Unicode, Arial, Sans-serif">from the Noun Project</text></svg>