<svg xmlns="http://www.w3.org/2000/svg" xmlns:xlink="http://www.w3.org/1999/xlink" version="1.1" x="0px" y="0px" viewBox="0 0 100 125" enable-background="new 0 0 100 100" xml:space="preserve"><g><path fill-rule="evenodd" clip-rule="evenodd" d="M88.9,32.3c0,0.1,0,0.1,0,0.2C88.9,32.4,88.9,32.4,88.9,32.3z"/><path fill-rule="evenodd" clip-rule="evenodd" d="M90.5,14.3c0-1.4-0.1-2.8-0.2-4.2c-0.1-1.4-0.2-2.8-0.5-4.2c0,0,0,0.1,0,0.1   c-0.1-0.4-0.3-0.9-0.8-0.8c-0.5,0-0.7,0.5-0.7,0.9c-0.2,1.1-0.2,2.2-0.4,3.3c-0.4-1.3-0.6-2.7-0.8-4c-0.1-0.7-0.1-1.3-0.3-2   c-0.1-0.6-0.3-1.3-0.4-1.9C86.3,1,86.2,0.2,85.7,0C85.4,0,85.1,0,84.9,0.2c-0.2,0.2-0.3,0.5-0.4,0.8c-0.4,1.2-0.6,2.6-0.8,3.8   c-0.1,0.4-0.1,0.7-0.2,1.1c-0.3-0.3-0.6-0.7-0.9-1.1c-0.2-0.4-0.5-0.9-0.9-1.1c-0.4-0.2-0.8,0.1-0.9,0.4c-0.1,0.2-0.1,0.5,0,0.7   c0,0.3,0,0.5,0.1,0.8c0.2,2.2,0.4,4.4,0.4,6.7c-0.3-0.4-0.6-0.8-0.9-1.2c-0.2-0.3-0.5-0.7-0.9-0.9c-0.4-0.1-0.9,0.2-1,0.7   c0,0.5,0,1,0,1.5c0.1,2.1,0.1,4.3,0.2,6.4c-0.3-0.1-0.6-0.1-0.8,0.2c-0.2,0.3-0.1,0.7-0.1,1c0.1,0.8,0.1,1.7,0.2,2.5   c0.1,0.8,0.1,1.7,0.2,2.5c0,0.8,0.1,1.7,0.1,2.5c-0.4-0.5-1-1.2-1.6-0.6c-0.2,0.2-0.3,0.5-0.3,0.8c0,0.4-0.1,0.8-0.1,1.2   c-0.1,1.5,0,3.1,0,4.6c-0.3-0.1-0.7,0.1-0.8,0.5c-0.1,0.4,0.1,0.8,0.1,1.2c0.1,0.9,0.1,1.7,0.2,2.6c-0.2-0.2-0.4-0.3-0.6-0.2   c-0.3,0.1-0.4,0.4-0.5,0.6c-0.2,0.6-0.2,1.2-0.3,1.8c0,0.7-0.1,1.4-0.2,2c0,0.3-0.1,0.6-0.1,1c0,0.2,0,0.3-0.1,0.5   c0,0.2-0.2,0.3-0.4,0.4c-0.5,0.5-0.9,0.9-1.4,1.4c-0.1,0.1-0.2,0.2-0.3,0.3c-0.1,0.1-0.1,0.1-0.2,0.1c-0.1,0-0.2,0-0.2,0   c-0.2,0-0.3,0-0.5-0.1c-0.1,0-0.2,0-0.2,0c-0.1,0-0.1-0.1-0.2-0.2c-0.9-1-1.8-1.9-2.8-2.8c-1-0.9-2.1-1.6-3.3-2.3   c-1.1-0.7-2.2-1.4-3.4-1.8c-1.2-0.5-2.5-0.9-3.8-1.2c-1.3-0.3-2.6-0.4-3.9-0.3c-0.2,0-0.3,0-0.5,0c-0.1,0-0.3,0-0.4,0   c-0.2,0-0.3,0.1-0.4,0.1c-0.2,0-0.4,0-0.6,0.1c-0.7,0.1-1.3,0.2-2,0.4c-0.7,0.2-1.3,0.3-2,0.5c-0.7,0.2-1.3,0.3-2,0.6   c-0.6,0.2-1.2,0.5-1.9,0.8c-0.3,0.1-0.6,0.3-0.9,0.4c-0.1,0.1-1.1,0.5-1.2,0.6c-0.1,0.1-0.3,0.1-0.4,0.2c-0.3,0.2-0.6,0.3-0.9,0.5   c-0.6,0.3-1.1,0.7-1.6,1.1c-0.5,0.4-1,0.9-1.6,1.3c-0.5,0.4-1.1,0.8-1.6,1.2c-1.1,0.8-2.2,1.5-3.4,2.2c-0.6,0.3-1.1,0.7-1.7,1   c-0.6,0.3-1.2,0.4-1.9,0.4c-0.6,0-1.3,0-1.9-0.3c-0.6-0.2-1-0.7-1.5-1c-0.1-0.1-0.3-0.1-0.4-0.2c-0.1-0.1-0.2-0.2-0.4-0.3   c-0.3-0.2-0.5-0.4-0.8-0.6c-0.5-0.4-1-0.8-1.6-1.1c-0.3-0.2-0.5-0.3-0.8-0.4c-0.3-0.1-0.6-0.3-0.9-0.3c-0.6,0-1,0.5-1.2,1   C19,46,19,46.6,18.9,47.3c0,0.3-0.1,0.6-0.1,0.9c-0.1,0.3-0.3,0.5-0.6,0.6C17.6,49,17,49,16.3,49c-0.7,0-1.4-0.1-2.1-0.1   c-0.7,0-1.4,0-2,0c-0.6,0-1.3,0-1.8,0.3c-1,0.6-1.1,2.2-0.8,3.2c0.2,0.6,0.5,1.2,0.7,1.8c0.3,0.6,0.6,1.2,0.9,1.7   c0.3,0.6,0.5,1.2,0.8,1.7c0.3,0.6,0.6,1.2,0.9,1.8c0.6,1.2,0.8,2.5,1.3,3.7c0.4,1.2,1,2.3,2,3.2c0.5,0.4,1,0.8,1.5,1.1   c0.6,0.3,1.1,0.6,1.8,0.8c0.6,0.2,1.3,0.3,1.9,0.3c0.6,0.2,1.3,0.1,1.9,0.1c0.7,0,1.4-0.1,2-0.1c0.3,0,0.7-0.1,1-0.1   c0.2,0,0.3-0.1,0.5-0.1c0.1,0,0.1,0,0.2-0.1c0.1,0,0.2,0.1,0.3,0.1c0.5,0.2,1,0.7,1.4,1.1c0.2,0.2,0.3,0.5,0.4,0.8   c0,0.1,0.1,0.3,0.1,0.5c0,0.2,0,0.4,0,0.6c0,1.4,0.1,2.7,0.1,4.1c0,1.4-0.1,2.7-0.3,4c-0.1,0.7-0.1,1.3-0.2,2   c-0.1,0.7-0.2,1.4-0.3,2c-0.2,1.4-0.4,2.7-0.5,4.1c-0.1,1.3-0.2,2.7-0.4,4c-0.1,0.7-0.1,1.3-0.2,2c0,0.7-0.2,1.3-0.2,2   c-0.1,0.7-0.2,1.3-0.3,2c-0.1,0.5-0.1,1.2,0.4,1.5c0.5,0.3,1.1,0.4,1.7,0.4c0.6,0,1.3,0,1.8-0.4c1.1-0.7,1-2.3,1-3.5   c0-1.4-0.1-2.7-0.2-4.1c0-0.7-0.1-1.4-0.1-2.1c0-0.7,0-1.4,0.1-2c0.1-1.4,0.5-2.7,0.8-4c0.3-1.3,0.5-2.6,0.8-3.9   c0.2-1.3,0.2-2.7,0.3-4c0-0.7,0-1.4,0.1-2.1c0-0.7,0.1-1.3,0.2-2c0.1-0.6,0.2-1.3,0.3-1.9c0.1-0.3,0.1-0.6,0.1-0.9   c0-0.1,0.2-0.2,0.3-0.3c0.1-0.1,0.3-0.2,0.4-0.3c0.1-0.1,0.3-0.1,0.4-0.2c0.2,0,0.2-0.1,0.3,0.1c0.2,0.3,0.3,0.6,0.4,0.9   c0.2,0.6,0.2,1.4,0.2,2c0.1,1.3,0.2,2.7,0,4c-0.1,1.4-0.2,2.7-0.2,4.1c0,0.7,0,1.4,0,2.1c0,0.7,0.1,1.4,0.1,2.1   c0,1.3-0.1,2.7-0.2,4c-0.1,1.3-0.3,2.7-0.5,4c-0.2,1.3-0.6,2.6-1,3.8c-0.1,0.3-0.2,0.6-0.3,0.9c-0.1,0.3-0.2,0.6-0.2,0.9   c0,0.6,0.1,1.2,0.4,1.7c0.1,0.2,0.3,0.4,0.5,0.6c0.1,0.1,0.2,0.1,0.3,0.2c0.1,0.1,0.2,0.2,0.3,0.3c0.2,0.1,0.5,0.2,0.7,0.2   c0.3,0.1,0.6,0.1,0.9-0.1c0.5-0.3,0.9-0.8,1.2-1.3c0.1-0.1,0.1-0.3,0.2-0.4c0.1-0.1,0.2-0.3,0.2-0.4c0.2-0.3,0.2-0.6,0.3-0.9   c0.2-0.7,0.4-1.4,0.5-2.1c0.2-0.7,0.3-1.4,0.4-2.1c0.2-1.4,0.2-2.8,0.3-4.2c0,0,0,0.1,0,0.1c0.1-0.7,0.1-1.3,0.1-2c0-0.7,0-1.3,0-2   c0.1-0.7,0.2-1.3,0.2-2c0-0.7,0.1-1.3,0.1-2c0-1.3,0.2-2.7,0.2-4c0-1.3,0.1-2.7,0.1-4c0-0.6-0.1-1.3-0.1-1.9c0-0.3,0-0.6,0-0.9   c0-0.3,0-0.7,0-1c0-0.7,0-1.4,0-2c0-0.7,0.1-1.3,0.1-2c0-0.2,0-0.3,0.1-0.4c0.1-0.1,0.1-0.3,0.2-0.4c0.1-0.3,0.3-0.6,0.5-0.9   c0.3-0.5,0.9-0.9,1.4-1.4c0.5-0.4,1-0.9,1.5-1.2c0.5-0.4,1.1-0.6,1.7-0.9c1.3-0.5,2.5-0.9,3.9-1.1c0.3,0,0.6-0.1,0.9-0.1   c0.3,0,0.7,0.1,1,0.2c0.6,0.2,1.2,0.4,1.8,0.7c0.6,0.3,1.2,0.6,1.8,0.9c0.6,0.3,1.2,0.5,1.8,0.7c0.3,0.1,0.6,0.2,0.9,0.3   c0.3,0.1,0.6,0.1,0.9,0.3c0.6,0.3,1.1,0.7,1.7,1.1c0.2,0.2,0.5,0.3,0.7,0.5c0.2,0.3,0.4,0.5,0.6,0.8c0.3,0.5,0.6,1.1,0.8,1.7   c0.4,1.3,0.8,2.6,1.1,3.9c0.3,1.3,0.5,2.7,0.8,4c0.3,1.3,0.7,2.7,1,4c0.6,2.7,0.9,5.4,1.1,8.2c0,0.7,0.1,1.3,0.1,2c0,0.7,0,1.4,0,2   c0,1.4,0,2.8-0.1,4.2c-0.1,1.3-0.5,2.6-0.8,3.9c-0.1,0.5-0.2,1.2,0.1,1.7c0.1,0.2,0.4,0.4,0.6,0.4c0.3,0.1,0.7,0.1,1,0.1   c0.6,0,1.2-0.2,1.7-0.6c0.4-0.4,0.8-0.9,1-1.5c0.4-1.2,0.3-2.5,0.2-3.8c-0.2-2.8-0.4-5.5-0.6-8.3c-0.2-2.8-0.4-5.6-0.6-8.3   c0-0.7-0.1-1.4-0.1-2.1c0-0.7-0.1-1.4-0.2-2.1c-0.1-0.6-0.3-1.3-0.5-1.9c-0.2-0.7-0.3-1.3-0.5-2c-0.2-0.7-0.3-1.3-0.5-2   c-0.1-0.3-0.1-0.6-0.2-1c-0.1-0.3-0.2-0.6-0.1-1c0.1-0.5,0.3-1.5,0.9-1.5c0.3,0,0.6,0.1,0.8,0.3c0.2,0.1,0.7,0.4,0.7,0.6   c0.5,2.7,1.3,5.3,1.8,8c0.5,2.7,0.9,5.4,1.2,8.1c0.2,1.4,0.2,2.7,0.3,4.1c0.1,1.4,0.2,2.7,0.2,4.1c-0.1,1.3-0.2,2.7-0.3,4   c-0.1,0.7-0.1,1.3-0.2,2c-0.1,0.7-0.3,1.3-0.3,2c0,0.6,0,1.2,0.5,1.6c0.5,0.4,1,0.4,1.6,0.5c1.3,0,2.5-0.5,3.1-1.7   c0.5-1.2,0.3-2.6,0.3-3.8c0-0.7,0-1.3,0-2c0-0.7-0.1-1.4-0.1-2.1c-0.1-1.4-0.2-2.8-0.3-4.2c0-0.7-0.1-1.4-0.2-2   c-0.1-0.7-0.2-1.4-0.3-2c-0.3-1.4-0.5-2.7-0.7-4.1c-0.2-1.3-0.3-2.7-0.5-4c-0.3-2.7-0.3-5.4-0.8-8.1c-0.1-0.7-0.2-1.3-0.3-2   c0-0.2,0-0.3-0.1-0.5c0-0.1-0.1-0.3,0-0.4c0.1-0.3,0.2-0.7,0.4-0.9c0.4-0.4,0.8-0.9,1-1.5c0.2-0.6,0.4-1.2,0.5-1.8   c0.1-0.4,0.1-0.8,0.2-1.2c0-0.2,0-0.4,0.1-0.7c0-0.2,0-0.4,0-0.6c0.2-0.8,0.3-1.7,0.4-2.6c0-0.4,0.1-0.8,0.1-1.2c0-0.2,0-0.4,0-0.6   c0-0.1,0-0.2,0-0.3c0-0.1,0.1-0.2,0.1-0.3c0.2-0.4,0.3-0.8,0.5-1.2c0-0.1,0.1-0.2,0.1-0.3c0.1-0.1,0.2-0.1,0.3-0.2   c0.2-0.1,0.3-0.2,0.5-0.3c0.1,0.2,0.2,0.4,0.4,0.4c0.2,0.1,0.5,0,0.6-0.2c0.3-0.4,0.5-0.8,0.7-1.3c0.5-0.9,1.1-1.8,1.5-2.7   c0.1,0.3,0.3,0.6,0.5,0.7c0.3,0.1,0.5-0.1,0.7-0.3c0.2-0.3,0.3-0.7,0.4-1c0.2-0.4,0.3-0.8,0.5-1.1c0.6-1.4,1.2-2.8,1.5-4.3   c0.1,0.1,0.2,0.2,0.3,0.3c0.1,0.1,0.2,0.2,0.3,0.2c0.3,0.1,0.5-0.1,0.6-0.3c0.3-0.6,0.5-1.3,0.6-2c0.1-0.7,0.2-1.4,0.3-2.2   c0.3-0.1,0.4-0.4,0.5-0.7c0.1-0.4,0.1-0.8,0.1-1.2c0,0.1,0,0,0-0.1c0-0.1,0-0.2,0-0.2c0-0.2,0-0.3,0-0.5c0-0.3,0-0.6,0.1-1   c0-0.6,0.1-1.2,0.1-1.9c0-1.3,0-2.5,0-3.8c0-0.1,0-0.1,0.1-0.1c0.1,0,0.1,0,0.2,0c0.1,0,0.2-0.1,0.3-0.2c0.2-0.2,0.2-0.5,0.2-0.8   c0-0.6-0.1-1.2-0.1-1.8c-0.1-1.2-0.2-2.5-0.2-3.7c0.3,0.2,0.8,0.3,1-0.1c0.2-0.2,0.2-0.4,0.2-0.7c0-0.2,0-0.5,0-0.7   C90.5,16.5,90.5,15.4,90.5,14.3C90.5,12.9,90.5,15,90.5,14.3z M36.2,96.5C36.2,96.5,36.2,96.5,36.2,96.5   C36.2,96.5,36.2,96.5,36.2,96.5z"/></g><text x="0" y="115" fill="#000000" font-size="5px" font-weight="bold" font-family="'Helvetica Neue', Helvetica, Arial-Unicode, Arial, Sans-serif">Created by Antonis Makriyannis</text><text x="0" y="120" fill="#000000" font-size="5px" font-weight="bold" font-family="'Helvetica Neue', Helvetica, Arial-Unicode, Arial, Sans-serif">from the Noun Project</text></svg>